 <svg version="1.0" xmlns="http://www.w3.org/2000/svg"  width="96.000000pt" height="96.000000pt" viewBox="0 0 224.000000 224.000000"  preserveAspectRatio="xMidYMid meet">  <g transform="translate(0.000000,224.000000) scale(0.100000,-0.100000)" fill="#FFFFFF" stroke="none"> <path d="M927 2214 c-459 -83 -817 -441 -901 -901 -23 -123 -14 -344 17 -464 86 -328 293 -584 591 -729 56 -28 146 -62 201 -77 92 -25 115 -27 285 -27 169 0 194 3 285 27 385 104 689 409 792 795 23 86 26 117 27 272 0 196 -9 255 -67 408 -137 366 -475 639 -864 697 -120 18 -263 18 -366 -1z m353 -19 c120 -20 188 -39 270 -78 36 -17 67 -31 70 -31 15 -3 113 -65 164 -104 179 -137 322 -350 380 -563 94 -351 34 -676 -179 -958 -215 -285 -548 -443 -903 -428 -150 6 -172 10 -277 43 -139 45 -293 126 -369 194 -12 10 -40 35 -64 56 -110 96 -233 287 -286 444 -92 278 -65 612 70 859 227 414 674 639 1124 566z"/> <path d="M313 1592 c-10 -6 -14 -76 -15 -276 -3 -247 -2 -270 15 -280 12 -8 22 -8 35 0 13 9 18 28 20 91 l3 80 47 2 c26 1 56 3 67 6 11 2 23 4 27 4 18 2 92 79 105 108 16 39 17 111 2 150 -14 38 -56 81 -101 104 -27 14 -58 19 -115 19 -43 0 -84 -4 -90 -8z m184 -23 c34 -13 80 -55 99 -91 18 -35 18 -111 0 -146 -19 -36 -65 -78 -99 -91 -16 -6 -55 -11 -88 -11 l-59 0 0 -90 c0 -73 -3 -90 -15 -90 -13 0 -15 36 -15 265 l0 265 74 0 c41 0 87 -5 103 -11z"/> <path d="M350 1404 l0 -147 63 5 c86 7 124 29 149 84 49 112 -27 204 -169 204 l-43 0 0 -146z m166 82 c29 -29 34 -41 34 -80 0 -36 -6 -52 -29 -78 -24 -27 -36 -32 -90 -36 l-61 -4 0 116 0 116 56 0 c50 0 59 -3 90 -34z"/> <path d="M658 1499 c-26 -15 -23 -64 5 -84 20 -15 21 -17 5 -26 -16 -9 -18 -28 -18 -169 0 -87 3 -165 6 -174 7 -19 45 -21 62 -4 8 8 12 60 12 169 0 128 -3 160 -15 173 -14 14 -14 17 5 36 25 25 26 52 2 73 -21 19 -39 21 -64 6z m57 -39 c0 -18 -6 -26 -23 -28 -24 -4 -38 18 -28 44 3 9 15 14 28 12 17 -2 23 -10 23 -28z m-7 -248 c2 -157 2 -162 -18 -162 -19 0 -20 6 -20 158 0 87 3 162 7 166 22 22 28 -11 31 -162z"/> <path d="M1141 1496 c-19 -23 -9 -69 18 -82 l23 -12 -21 -11 c-21 -12 -21 -17 -19 -178 3 -145 5 -167 21 -177 12 -8 22 -8 35 0 15 10 17 32 20 172 2 134 0 163 -13 176 -14 14 -14 17 5 36 11 11 20 29 20 39 0 43 -63 68 -89 37z m64 -36 c0 -18 -6 -26 -23 -28 -24 -4 -38 18 -28 44 3 9 15 14 28 12 17 -2 23 -10 23 -28z m-7 -248 c2 -157 2 -162 -18 -162 -19 0 -20 6 -20 158 0 87 3 162 7 166 22 22 28 -11 31 -162z"/> <path d="M1752 1417 c-48 -18 -97 -61 -115 -100 -21 -44 -22 -148 -3 -186 25 -47 92 -100 136 -107 22 -4 40 -10 40 -15 0 -14 -88 -70 -149 -94 -141 -58 -302 -68 -481 -30 -80 17 -95 21 -205 59 -61 21 -148 44 -235 62 -43 9 -182 5 -237 -7 -29 -7 -61 -21 -70 -31 -17 -19 -17 -20 1 -33 14 -11 24 -11 54 -1 112 39 230 27 458 -45 88 -27 170 -52 184 -55 14 -2 36 -7 50 -10 63 -16 284 -22 350 -9 157 29 325 118 348 185 6 16 23 35 39 43 71 38 108 108 101 196 -5 69 -33 118 -90 156 -45 30 -128 40 -176 22z m169 -45 c48 -29 81 -92 81 -153 0 -149 -186 -235 -298 -137 -48 42 -64 77 -64 139 0 84 55 156 136 178 40 10 105 -2 145 -27z m-84 -396 c-107 -95 -268 -147 -452 -148 -140 0 -214 14 -415 77 -239 76 -388 91 -489 49 -40 -17 -41 -17 -41 -4 0 5 26 17 57 26 94 27 250 15 393 -30 316 -100 461 -121 627 -92 122 21 187 47 269 106 79 56 107 65 51 16z"/> <path d="M1747 1348 c-80 -47 -97 -153 -35 -224 80 -90 232 -46 253 74 20 121 -111 212 -218 150z m117 -12 c67 -28 95 -109 61 -176 -31 -60 -116 -78 -176 -37 -64 43 -71 135 -16 188 42 40 79 47 131 25z"/> <path d="M879 1406 c-19 -7 -41 -10 -48 -8 -7 2 -21 -4 -32 -14 -17 -15 -19 -31 -19 -168 0 -128 3 -154 18 -174 16 -21 19 -21 40 -7 21 15 22 23 22 140 0 122 0 124 26 144 36 28 65 26 95 -5 22 -23 24 -35 27 -142 4 -120 11 -142 43 -142 30 0 39 33 39 147 0 132 -20 184 -85 220 -45 26 -74 28 -126 9z m128 -32 c46 -29 53 -54 56 -193 2 -119 0 -131 -15 -131 -16 0 -18 13 -18 126 0 125 0 126 -29 155 -39 38 -87 39 -130 3 l-31 -26 0 -129 c0 -108 -2 -129 -15 -129 -13 0 -15 25 -15 165 0 140 2 165 15 165 8 0 15 -5 15 -11 0 -8 4 -8 14 0 38 32 108 34 153 5z"/> <path d="M1375 1409 c-16 -6 -40 -11 -51 -10 -12 0 -29 -8 -38 -18 -14 -16 -16 -40 -14 -176 3 -138 5 -159 21 -169 12 -8 22 -8 35 0 14 9 17 30 20 137 3 122 3 127 29 147 39 31 84 25 106 -14 6 -11 14 -75 17 -140 4 -99 8 -121 23 -130 12 -8 22 -8 35 0 15 10 17 27 14 145 -3 144 -12 173 -62 210 -31 23 -96 31 -135 18z m122 -35 c47 -30 53 -54 56 -193 2 -119 0 -131 -15 -131 -16 0 -18 13 -18 126 0 125 0 126 -29 155 -39 38 -87 39 -130 3 l-31 -26 0 -129 c0 -108 -2 -129 -15 -129 -13 0 -15 25 -15 165 0 140 2 165 15 165 8 0 15 -5 15 -11 0 -8 4 -8 14 0 36 30 111 33 153 5z"/> <path d="M561 786 c-8 -9 -11 -46 -9 -107 l3 -94 42 -9 c34 -7 48 -5 68 8 20 13 30 15 40 6 7 -6 25 -8 39 -4 15 4 32 1 41 -6 10 -8 28 -9 57 -4 24 5 54 8 68 9 16 0 29 9 37 25 8 16 13 19 13 9 0 -26 27 -44 45 -29 11 9 19 8 37 -4 12 -9 31 -16 42 -16 11 0 28 -7 38 -16 14 -14 20 -14 33 -4 8 7 15 18 15 26 0 10 6 11 29 3 22 -8 36 -7 57 4 25 13 32 13 61 -1 26 -12 37 -13 58 -4 15 7 37 9 51 6 19 -5 26 -1 33 17 l8 24 7 -23 c8 -24 26 -28 43 -11 9 9 19 8 39 -6 18 -12 37 -15 61 -12 53 9 63 23 63 83 0 43 -4 56 -22 68 -25 18 -80 21 -108 6 -15 -8 -17 -6 -13 8 2 10 -3 24 -12 32 -13 11 -20 9 -44 -14 -18 -17 -38 -26 -57 -26 -176 4 -195 -2 -196 -59 -1 -42 -18 -40 -18 3 0 36 -11 50 -45 53 -11 1 -40 5 -65 8 -32 5 -51 2 -65 -8 -17 -13 -22 -13 -43 1 -18 12 -32 13 -60 6 -23 -6 -55 -5 -85 1 -35 7 -53 6 -68 -3 -17 -11 -19 -9 -19 10 0 13 -7 32 -15 42 -12 15 -17 17 -29 7 -8 -7 -16 -25 -18 -39 -2 -18 -8 -26 -18 -23 -8 2 -27 6 -42 9 -16 2 -28 10 -28 17 0 6 -8 19 -19 29 -16 14 -20 14 -30 2z m27 -40 c-4 -34 -3 -34 29 -29 44 7 73 -18 73 -63 0 -45 -34 -68 -84 -58 l-36 6 0 89 c0 59 4 89 11 89 7 0 10 -13 7 -34z m152 -56 c0 -65 -3 -90 -12 -90 -10 0 -12 23 -10 90 2 49 8 90 13 90 5 0 9 -40 9 -90z m780 55 c-7 -8 -19 -15 -27 -15 -13 0 -13 3 -3 15 7 8 19 15 27 15 13 0 13 -3 3 -15z m-665 -35 c4 -6 11 -8 16 -5 5 4 9 -20 8 -57 0 -35 -3 -58 -5 -52 -4 9 -13 9 -33 1 -62 -23 -109 55 -64 105 17 19 68 25 78 8z m126 0 c15 -8 19 -22 19 -60 0 -64 -18 -65 -22 -2 -3 39 -6 47 -23 47 -17 0 -20 -8 -23 -47 -4 -66 -22 -61 -22 6 0 44 4 55 18 59 28 8 33 7 53 -3z m138 4 l31 -6 0 -74 c0 -43 -4 -74 -10 -74 -5 0 -10 11 -10 25 0 23 -2 24 -25 13 -22 -10 -30 -8 -53 9 -34 25 -40 65 -13 92 23 23 32 24 80 15z m271 -4 c12 -8 8 -16 -23 -48 -20 -21 -37 -41 -37 -45 0 -11 35 -8 48 5 6 6 15 8 19 4 10 -9 -25 -36 -47 -36 -26 0 -60 38 -60 67 0 50 57 81 100 53z m248 4 c19 -6 22 -13 22 -61 0 -43 -3 -54 -14 -50 -7 3 -18 1 -24 -5 -29 -29 -100 29 -87 71 14 45 47 60 103 45z m-448 -43 c0 -42 18 -65 44 -55 11 4 16 19 16 50 0 24 5 44 10 44 6 0 10 -20 10 -44 0 -35 -5 -48 -22 -60 -29 -20 -34 -20 -58 4 -21 21 -29 100 -10 100 6 0 10 -17 10 -39z m271 17 c-16 -14 -22 -29 -19 -54 1 -18 -2 -33 -7 -31 -6 1 -11 25 -11 53 -2 50 -1 51 28 52 l30 1 -21 -21z m49 -33 c0 -30 -4 -55 -10 -55 -5 0 -10 25 -10 55 0 30 5 55 10 55 6 0 10 -25 10 -55z m-553 -7 c-3 -8 -6 -5 -6 6 -1 11 2 17 5 13 3 -3 4 -12 1 -19z"/> <path d="M597 693 c-14 -13 -7 -71 9 -77 28 -11 43 -6 59 18 22 33 5 66 -34 66 -15 0 -31 -3 -34 -7z m51 -36 c2 -12 -3 -17 -17 -17 -15 0 -21 6 -21 21 0 25 33 22 38 -4z"/> <path d="M787 694 c-11 -12 -8 -59 5 -72 30 -30 80 4 69 48 -5 19 -14 26 -37 28 -16 2 -33 0 -37 -4z m53 -39 c0 -8 -9 -15 -20 -15 -11 0 -20 7 -20 15 0 8 9 15 20 15 11 0 20 -7 20 -15z"/> <path d="M1050 685 c-17 -20 -5 -62 20 -70 44 -14 80 41 48 73 -17 17 -53 15 -68 -3z m60 -26 c0 -15 -30 -23 -42 -11 -6 6 -7 15 -4 20 7 12 46 4 46 -9z"/> <path d="M1320 686 c-6 -8 -10 -23 -8 -34 3 -16 7 -14 36 15 32 32 32 33 9 33 -14 0 -30 -7 -37 -14z"/> <path d="M1558 675 c-10 -22 -9 -29 10 -47 18 -19 25 -20 47 -10 22 10 26 18 23 45 -3 28 -7 32 -35 35 -27 3 -35 -1 -45 -23z m51 -8 c8 -10 7 -17 -1 -25 -15 -15 -39 3 -31 24 7 18 17 18 32 1z"/> </g> </svg> 